<svg xmlns="http://www.w3.org/2000/svg" viewBox="-10 -10 70.59 104.75" width="60" height="60"><defs><style>.cls-2{fill:#ffd740}.cls-3{fill:none;stroke:#000;stroke-linecap:round;stroke-linejoin:round;stroke-width:2.73px}</style></defs><g id="ice-tea-Layer_2" data-name="Layer 2"><g id="ice-tea-Layer_1-2" data-name="Layer 1"><path d="M4.39 26.11H46.2a3 3 0 013 3v5.14H1.37v-5.12a3 3 0 013.02-3.02z" fill="#ffe7a4"/><path class="cls-2" d="M41.35 83.38H9.49L4.11 34.27h42.72l-5.48 49.11z"/><path class="cls-3" d="M46.25 39.43l-4.9 43.95H9.49L4.74 40.02"/><path d="M41.28 26.11h4.92a3 3 0 013 3v5.14H1.37v-5.12a3 3 0 013-3h31.09" stroke-width="2.73" stroke="#000" stroke-linecap="round" stroke-linejoin="round" fill="#ffe7a4"/><path class="cls-2" d="M22.7 1.56h5.25v23.18H22.7z"/><path class="cls-3" d="M22.7 20.79V2.61a1.24 1.24 0 011.24-1.24h2.77A1.24 1.24 0 0128 2.61v22.22"/><path d="M12.11 49.84c14.51-3.61 28.11 2.51 24.8 17.47l-.14.07s-4.38-11.6-13-12.34c-.17 0-.23.22-.09.31 5.78 3.48 7.11 8.93 8.8 14.23-22.17-3.1-14.26-14.89-20.37-19.74z" fill="#5fc4b8" stroke-width="2.5" fill-rule="evenodd" stroke="#000" stroke-linecap="round" stroke-linejoin="round"/></g></g></svg>