<svg xmlns="http://www.w3.org/2000/svg" viewBox="-10 -10 95.8 104.64" width="60" height="60"><defs><style>.cls-3,.cls-5,.cls-9{stroke:#000;stroke-width:2.5px}.cls-5{stroke-miterlimit:10}.cls-3{fill:#e0e0e0}.cls-3,.cls-5,.cls-9{stroke-linecap:round}.cls-3,.cls-9{stroke-linejoin:round}.cls-5,.cls-9{fill:none}.cls-8{fill:#ffe082}</style></defs><g id="hookah-Layer_2" data-name="Layer 2"><g id="hookah-Layer_1-2" data-name="Layer 1"><rect x="10.28" y="1.25" width="15.09" height="4.15" rx="2.07" stroke-miterlimit="10" stroke="#000" stroke-width="2.5" fill="#a0a0a0"/><path d="M12.72 5.4h10.72v2a3.27 3.27 0 01-3.27 3.27H16a3.27 3.27 0 01-3.27-3.27v-2h-.01z" fill="#e0e0e0" stroke-miterlimit="10" stroke="#000" stroke-width="2.5"/><path class="cls-3" d="M15.47 10.68h5.09l.9 7.53h-6.88l.89-7.53zm5.33 14.85h-5.71l1.14-7.32h3.48l1.09 7.32z"/><path class="cls-3" d="M7.55 25.53h21.08v1.41a4.1 4.1 0 01-4.1 4.1H11.65a4.1 4.1 0 01-4.1-4.1v-1.41zm12.87 5.52h-4.48v3.27a3.56 3.56 0 01-.5 1.82l-3.22 5.46a2.25 2.25 0 001.72 3.4h8a2.29 2.29 0 001.82-3.35l-3.09-6a2.87 2.87 0 01-.31-1.31z"/><path class="cls-3" d="M13.28 44.85h9.55v5.77h-9.55z"/><path fill="#66bb6a" stroke-miterlimit="10" stroke="#000" stroke-width="2.5" d="M13.28 50.62h9.55v5.42h-9.55z"/><path class="cls-5" d="M11.9 56.04h12.13"/><path d="M13.28 56h9.55l11.36 19.12a5.45 5.45 0 01-4.29 8.26H6.32A5.46 5.46 0 012 75.13z" fill="#66bb6a"/><path class="cls-5" d="M6.21 68l7.07-12h9.55l11.36 19.12a5.45 5.45 0 01-4.29 8.26H6.32A5.46 5.46 0 012 75.13l.87-1.47"/><path stroke-linejoin="round" stroke-linecap="round" stroke="#000" stroke-width="2.5" fill="#a0a0a0" d="M21.706 37.598l3.964-2.109 2.41 4.53-3.965 2.108z"/><rect class="cls-8" x="44.33" y="1.25" width="22.92" height="4.15" rx="2.07"/><path class="cls-8" d="M74.55 8.68A3.26 3.26 0 0171.27 12H67a3 3 0 013 3 3 3 0 01-3 3h-5.51v11.21h-4V15a3 3 0 013-3h-1.24a3.27 3.27 0 01-2.32-5.59 3.31 3.31 0 012.32-1H46.4a2.08 2.08 0 01-2.07-2.08 2.08 2.08 0 012.07-2.08h18.77a2.08 2.08 0 110 4.15h6.1a3.28 3.28 0 013.28 3.28z"/><path class="cls-9" d="M74.55 8.68A3.26 3.26 0 0171.27 12H67a3 3 0 013 3 3 3 0 01-3 3h-5.51v11.21h-4V15a3 3 0 013-3h-1.24a3.27 3.27 0 01-2.32-5.59 3.31 3.31 0 012.32-1H46.4a2.08 2.08 0 01-2.07-2.08 2.08 2.08 0 012.07-2.08h18.77a2.08 2.08 0 110 4.15h6.1a3.28 3.28 0 013.28 3.28zm-18.34 35.2h6.41v14.14h-6.41z"/><path class="cls-9" d="M55.83 40.12a3.74 3.74 0 011.56-3v-7.91h4.24v7.84a3.71 3.71 0 11-5.8 3.07zm-1.25 3.57h9.72"/><rect class="cls-9" x="54.1" y="58.17" width="10.73" height="4.51" rx="2.25"/><path d="M45.27 51v-8.44s-.14-6.83-7.92-9C30 32.68 25.92 36 25.92 36l1.85 3.48S38.48 34 41.14 42.23a4.1 4.1 0 01.2 1.3v29a6.81 6.81 0 00.23 1.74c.63 2.28 2.82 7.29 10.13 7.67 4.87-.37 7.33-2.78 8.58-5a10.18 10.18 0 001.26-5v-9.26h-4.12v8.51a7.34 7.34 0 01-.87 3.52 5.5 5.5 0 01-5.07 3c-4.59-.31-6.15-3.18-6.22-5.55v-11.2" fill="#82d1d1" stroke-linejoin="round" stroke-linecap="round" stroke="#000" stroke-width="2.5"/></g></g></svg>