<svg xmlns="http://www.w3.org/2000/svg" viewBox="-10 -10 104.78 75.75" width="60" height="60"><defs><style>.cls-2,.cls-4{fill:none}.cls-2,.cls-4,.cls-5{stroke:#000;stroke-linecap:round;stroke-width:2.5px}.cls-2{stroke-miterlimit:10}.cls-5{fill:#e0e0e0}.cls-4,.cls-5{stroke-linejoin:round}</style></defs><g id="main-course-1-Layer_2" data-name="Layer 2"><g id="main-course-1-Layer_1-2" data-name="Layer 1"><path d="M2.64 47.89h79.51a1.39 1.39 0 011.39 1.39 5.22 5.22 0 01-5.22 5.22H6.47a5.22 5.22 0 01-5.22-5.22 1.39 1.39 0 011.39-1.39z" fill="#82d1d1"/><path class="cls-2" d="M13.39 54.45H6.47a5.22 5.22 0 01-5.22-5.22 1.39 1.39 0 011.39-1.39h79.51a1.38 1.38 0 011.38 1.39 5.22 5.22 0 01-5.22 5.22H28.8"/><path d="M42.51 47.78H9.27c0-18 15-32.75 33.24-32.75s33.23 14.78 33.23 32.75z" fill="#e0e0e0"/><path class="cls-4" d="M73.45 35.9a32 32 0 012.29 11.88H9.27c0-18 15-32.75 33.24-32.75a33.12 33.12 0 017.15.78"/><path class="cls-5" d="M17.09 40s1.78-8.77 8.35-12.2"/><circle class="cls-5" cx="42.54" cy="9.58" r="5.45"/><path d="M65.39 33.32H62a9.11 9.11 0 01-9.11-9.12l1.83-22.95H72.9l1.6 23a9.11 9.11 0 01-9.11 9.07z" fill="#c5f0ff"/><path d="M65.66 33.32h-4.18a8.43 8.43 0 01-8.42-8.43l.36-7.61h20.43l.24 7.61a8.43 8.43 0 01-8.43 8.43z" fill="#c41414"/><path class="cls-4" d="M65.39 33.32H62a9.11 9.11 0 01-9.11-9.12l1.83-22.95H72.9l1.6 23a9.11 9.11 0 01-9.11 9.07zm-1.71 0v14.46"/><path fill="#c5f0ff" stroke-linejoin="round" stroke="#000" stroke-linecap="round" stroke-width="2.5" d="M74.86 54.5H52.52v-2.92l11.17-3.74 11.17 3.74v2.92z"/><path class="cls-2" d="M53.42 17.28h20.43"/></g></g></svg>