<svg xmlns="http://www.w3.org/2000/svg" viewBox="-10 -10 104.68 104.68" width="60" height="60"><defs><style>.cls-5,.cls-6,.cls-7,.cls-9{stroke:#000;stroke-linecap:round;stroke-linejoin:round;stroke-width:2.5px}.cls-5{fill:#f5cf88}.cls-6{fill:#a3603e}.cls-7{fill:#30a340}.cls-9{fill:none}.cls-10{fill:#c41414}</style></defs><g id="teppanyaki-1-Layer_2" data-name="Layer 2"><g id="teppanyaki-1-Layer_1-2" data-name="Layer 1"><circle cx="42.34" cy="42.34" r="41.09" fill="#82d1d1"/><path d="M75 17.43a41.12 41.12 0 11-8.35-8.2" stroke="#000" stroke-linecap="round" stroke-linejoin="round" stroke-width="2.5" fill="#82d1d1"/><circle cx="42.34" cy="42.34" r="33.11" fill="#e0e0e0"/><path d="M10.67 32.63a33.12 33.12 0 1112.51 36.72" fill="#e0e0e0" stroke="#000" stroke-linecap="round" stroke-linejoin="round" stroke-width="2.5"/><path class="cls-5" d="M69 53.32a7.47 7.47 0 01-5.75 4.77 7.31 7.31 0 01-2.91-.09.85.85 0 01-.62-.57.83.83 0 010-.58L62 50.76l2.29-6.1a.85.85 0 011.21-.46 7.48 7.48 0 013.5 9.12zm-15.26 2.37l-.93 1-.47-.18a2 2 0 00-.41-.1A1.68 1.68 0 0050.08 58L50 59.87l-.59.64-3.64 3.93-.79.86a.87.87 0 01-1.3 0l-.17-.22a7.45 7.45 0 01-1.53-4.36 9.49 9.49 0 011.06-4 7.25 7.25 0 01.86-1.16 7.5 7.5 0 018.51-1.8 7.58 7.58 0 011.24.7.86.86 0 01.09 1.23z"/><path class="cls-5" d="M52.81 56.72h-.39a.65.65 0 01-.45-.28 2 2 0 01.41.1z"/><path class="cls-6" d="M53.12 29.06l-.56.25-5.29-3.69-2.79-6.33-1-2.22a1.67 1.67 0 01.41-1.94 1.77 1.77 0 01.45-.3l3.07-1.35a1.7 1.7 0 012.24.86l.56 1.28-1.32 1.16a1.69 1.69 0 00-.15 2.39l3.91 4.44-1.44 2.06a1.69 1.69 0 00.44 2.33z"/><path class="cls-6" d="M47.27 25.62l-2.14-1.5-1.92-1.34a1.5 1.5 0 00-2.09.37l-1.7 2.44a1.43 1.43 0 00-.27.75l-.75-1.7L37 14.2a1.69 1.69 0 011.45-1.91l3.32-.45a1.69 1.69 0 011.91 1.45l.25 1.84a1.67 1.67 0 00-.41 1.94l1 2.22z"/><path class="cls-6" d="M41.14 28.63l-.48.07a1.82 1.82 0 01-.62 0 1.87 1.87 0 01-.04.3l-3.3-1.14-6.62-5.33-1.68-3.82a1.71 1.71 0 01.87-2.24l3.07-1.35a1.69 1.69 0 012.23.86l3.83 8.66.75 1.7a1.48 1.48 0 00.57 1.29l.07.05z"/><path class="cls-6" d="M36.71 27.86l-5-1.75-2.57-.9a1.7 1.7 0 00-2.16 1.05l-.65 1.87-4-3.2a1.7 1.7 0 01-.26-2.38l2.11-2.62a1.69 1.69 0 012.38-.25l3.54 2.85z"/><path class="cls-6" d="M42.58 31.69l-1.1 3.17a1.7 1.7 0 01-2.16 1l-12.44-4.27a1.7 1.7 0 01-1-2.16l.45-1.3.65-1.87a1.7 1.7 0 012.16-1.05l2.57.9 5 1.75L40 29l1.52.53a1.7 1.7 0 011.06 2.16zM62.38 27l-.21.18-6.66-4.68a1.71 1.71 0 00-2.16.18 2.31 2.31 0 00-.2.24l-.48.69-3.91-4.44a1.69 1.69 0 01.15-2.39l1.32-1.16 1.2-1.06a1.69 1.69 0 012.39.15l8.71 9.88a1.69 1.69 0 01-.15 2.41z"/><path class="cls-6" d="M66.72 32.4l-1.92 2.75a1.69 1.69 0 01-2.36.42l-9.32-6.51-1.47-1a1.69 1.69 0 01-.42-2.36l1.44-2.06.48-.69a2.31 2.31 0 01.2-.24 1.71 1.71 0 012.16-.18l6.66 4.66L66.3 30a1.7 1.7 0 01.42 2.4zm-13.57-.84L51.45 34a1.52 1.52 0 01-2.1.38l-8.21-5.74-1.35-.95-.07-.05a1.48 1.48 0 01-.57-1.29 1.43 1.43 0 01.27-.75l1.7-2.44a1.5 1.5 0 012.09-.37l1.92 1.34 2.14 1.5 5.29 3.69.22.15a1.51 1.51 0 01.37 2.09z"/><path class="cls-7" d="M60.83 50.13a7.47 7.47 0 01-7.38 6.66H53l-.18-.06.93-1a.86.86 0 00-.14-1.29 7.58 7.58 0 00-1.24-.7l.9-3.6c.47-.27 1-.51 1.44-.73h5.43a.7.7 0 01.69.72z"/><path d="M53 56.78h-.61a.65.65 0 01-.45-.28 2 2 0 01.41.1l.47.18z" fill="#30a340"/><path class="cls-9" d="M53 56.78h-.61a.65.65 0 01-.45-.28 2 2 0 01.41.1l.47.18z"/><path class="cls-7" d="M58.32 38.9l-1.23 1.19a18.91 18.91 0 00-6.32 1.76L49 40.78 47.83 40a.69.69 0 01-.19-1c.09-.12.19-.24.29-.35a7.47 7.47 0 019.5-1.42 7.59 7.59 0 01.86.63.69.69 0 01.03 1.04zm-5.85 29.85L47 71.56a.71.71 0 01-.84-.16l-4-4.62a.69.69 0 01.1-1 7.42 7.42 0 011.25-.71l.17.22a.87.87 0 001.3 0l.79-.86a7.46 7.46 0 016.38 2.47 6.75 6.75 0 01.64.85.7.7 0 01-.32 1z"/><path class="cls-10" d="M59.34 48.18a15.24 15.24 0 00-4.64 1.19c-.49.22-1 .46-1.44.73A16.68 16.68 0 0051 51.66a1.67 1.67 0 01-2.59-.66l-1.21-2.88.52-2 .73-2.93a19.84 19.84 0 012.32-1.33 18.91 18.91 0 016.32-1.76h.19a1.32 1.32 0 011.34.81l2.08 5a1.67 1.67 0 01-1.36 2.27z"/><path class="cls-9" d="M59.34 48.18a15.24 15.24 0 00-4.64 1.19c-.49.22-1 .46-1.44.73A16.68 16.68 0 0051 51.66a1.67 1.67 0 01-2.59-.66l-1.21-2.88.52-2 .73-2.93a19.84 19.84 0 012.32-1.33 18.91 18.91 0 016.32-1.76h.19a1.32 1.32 0 011.34.81l2.08 5a1.67 1.67 0 01-1.36 2.27z"/><path class="cls-10" d="M63.37 58.93L63 64.31a1.33 1.33 0 01-1 1.21 18.86 18.86 0 01-11.45-.81 1.32 1.32 0 01-.83-1.33l.28-3.51.08-1.87a1.68 1.68 0 011.85-1.56.65.65 0 00.45.28h.61a14.82 14.82 0 006.73.68.85.85 0 00.62.57 7.31 7.31 0 002.87.06 1.69 1.69 0 01.16.9z"/><path class="cls-9" d="M63.37 58.93L63 64.31a1.33 1.33 0 01-1 1.21 18.86 18.86 0 01-11.45-.81 1.32 1.32 0 01-.83-1.33l.28-3.51.08-1.87a1.68 1.68 0 011.85-1.56.65.65 0 00.45.28h.61a14.82 14.82 0 006.73.68.85.85 0 00.62.57 7.31 7.31 0 002.87.06 1.69 1.69 0 01.16.9z"/><path class="cls-10" d="M53 56.78h-.61a.65.65 0 01-.45-.28 2 2 0 01.41.1l.47.18z"/><path class="cls-9" d="M53 56.78h-.61a.65.65 0 01-.45-.28 2 2 0 01.41.1l.47.18z"/><circle cx="21.69" cy="52.06" r="16.28" fill="#b2b6bb" stroke="#000" stroke-linecap="round" stroke-linejoin="round" stroke-width="2.5"/><circle class="cls-10" cx="21.69" cy="52.06" r="11.39"/><path class="cls-10" d="M25 63a11.39 11.39 0 118-10.89 11.35 11.35 0 01-2 6.44"/><path class="cls-9" d="M25 63a11.39 11.39 0 118-10.89 11.35 11.35 0 01-2 6.44"/><path class="cls-5" d="M49 40.78l-.59 2.4-.73 2.93-.52 2-1.1 4.3a.87.87 0 01-1.16.6 7.45 7.45 0 013-14.35c-.1.11-.2.23-.29.35a.69.69 0 00.19 1z"/></g></g></svg>